<svg width="147" height="147" viewBox="0 0 147 147" fill="none" xmlns="http://www.w3.org/2000/svg">
<path opacity="0.503384" d="M80.1156 41.8951C76.3601 40.338 56.7668 35.6405 56.5967 30.9415C56.5298 29.0955 59.9332 20.8092 73.0276 23.7952C81.0777 25.6309 80.4323 33.5072 79.5331 36.8897C79.1013 38.5148 76.8191 39.5023 75.8783 40.8995" stroke="#207082" stroke-opacity="0.9" stroke-width="2" stroke-linecap="round" stroke-linejoin="round"/>
<path d="M73.8682 43.107C67.9397 58.1337 50.1281 53.4624 55.3311 36.75" stroke="black" stroke-opacity="0.9" stroke-width="2" stroke-linecap="round" stroke-linejoin="round"/>
<path d="M54.3899 58.8C52.4855 66.2228 51.2463 94.0231 48.8734 99.8347C46.0477 106.754 39.2511 115.617 34.5449 121.381L38.3552 124.215" stroke="black" stroke-opacity="0.9" stroke-width="2" stroke-linecap="round" stroke-linejoin="round"/>
<path d="M70.5591 124.205C69.9219 124.29 64.8934 123.819 64.6766 123.681C64.4594 123.543 64.6766 94.1418 58.4316 82.1279L62.2812 59.9026" stroke="black" stroke-opacity="0.9" stroke-width="2" stroke-linecap="round" stroke-linejoin="round"/>
<path d="M53.6544 58.4344C37.609 58.2903 33.8147 66.9901 50.6391 74.235" stroke="black" stroke-opacity="0.9" stroke-width="2" stroke-linecap="round" stroke-linejoin="round"/>
<path d="M63.2109 60.6375C68.3945 67.2708 72.3587 76.1941 77.5434 82.3199" stroke="black" stroke-opacity="0.9" stroke-width="2" stroke-linecap="round" stroke-linejoin="round"/>
<path d="M35.2793 74.6025C55.3657 77.7263 70.0786 78.4429 90.0368 80.85" stroke="black" stroke-opacity="0.9" stroke-width="2" stroke-linecap="round" stroke-linejoin="round"/>
<path d="M95.0359 75.4346C95.0315 77.3941 90.9912 86.1148 92.6358 87.8186C98.1549 93.5358 120.446 89.3929 109.446 79.15C106.37 76.2857 101.416 75.145 96.1881 74.6025" stroke="#AC2F2F" stroke-opacity="0.9" stroke-width="2" stroke-linecap="round" stroke-linejoin="round"/>
</svg>
